<svg width="67" height="51" viewBox="0 0 67 51" fill="none" xmlns="http://www.w3.org/2000/svg">
<path d="M35 0V2.31H30.66C29.85 1.5 28.73 1 27.5 1C26.67 1 25.84 1.24 25.12 1.69L25.01 1.77C24.43 2.25 23.24 3 22.5 3C21.53 3 20.67 2.45001 20.25 1.57001L19.98 1H4.5C2.02 1 0 3.02 0 5.5C0 7.98 2.02 10 4.5 10H19.98L20.25 9.42999C20.67 8.54999 21.53 8 22.5 8C23.25 8 24.44 8.75 25.01 9.23L25.12 9.31C25.84 9.76 26.67 10 27.5 10C28.59 10 29.58 9.6 30.36 8.95H35V10.42L38.59 14.01H42V18.01H52V14.01H55.41L59 10.42V0H35ZM27.5 8C27.06 8 26.62 7.88 26.23 7.64C25.84 7.33 24.1 6 22.5 6C21 6 19.6 6.77 18.77 8H4.5C3.12 8 2 6.88 2 5.5C2 4.12 3.12 3 4.5 3H18.77C19.6 4.23 21 5 22.5 5C24.1 5 25.84 3.67 26.23 3.36C26.62 3.13 27.06 3 27.5 3C28.88 3 30 4.12 30 5.5C30 6.88 28.88 8 27.5 8ZM31.74 6.95C31.9 6.49 32 6.01 32 5.5C32 5.08 31.92 4.69 31.82 4.31H35V6.95H31.74ZM50 16H44V14H50V16ZM57 9.59L54.59 12H52H42H39.41L37 9.59V2H57V9.59ZM63.64 33H60.73C60.23 31.83 59.06 31 57.7 31H35.29C33.47 31 32 32.48 32 34.36C32.4 40.58 33.61 51 37.29 51H55.7C57.54 51 58.76 48.39 59.58 45H62.63C65.55 45 66.65 39.05 66.98 36.49L66.99 36.36C67 34.51 65.49 33 63.64 33ZM55.51 39L45.59 49H42.41L52.33 39H55.51ZM58.33 39H58.56C58.4 40.26 58.22 41.44 58.03 42.51L51.59 49H48.41L58.33 39ZM35.29 33H57.7C58.41 33 58.99 33.58 58.99 34.23C58.93 35.18 58.85 36.1 58.76 37H34.21C34.12 36.12 34.05 35.22 33.99 34.29C34 33.58 34.58 33 35.29 33ZM35.29 44.07L40.33 39H43.51L35.95 46.62C35.72 45.91 35.5 45.05 35.29 44.07ZM34.84 41.69C34.7 40.84 34.57 39.94 34.45 39H37.51L34.84 41.69ZM36.79 48.6L46.32 39H49.5L39.58 49H37.29C37.14 49 36.97 48.85 36.79 48.6ZM55.71 49H54.4L57.18 46.2C56.67 47.96 56.14 49 55.71 49ZM62.64 43H60C60.49 40.33 60.78 37.42 60.95 35H63.64C64.37 35 64.97 35.58 65 36.3C64.51 39.92 63.3 43 62.64 43ZM47.06 27.31C48.68 27.31 50 25.92 50 24.21C50 22.96 48.7 21 47.92 19.94C47.86 19.85 47.76 19.76 47.68 19.7C47.23 19.39 46.53 19.5 46.21 19.94C45.43 21 44.13 22.97 44.13 24.22C44.13 25.92 45.44 27.31 47.06 27.31ZM47.06 22.23C47.65 23.18 48 23.93 48 24.21C48 24.82 47.58 25.31 47.06 25.31C46.54 25.31 46.12 24.82 46.12 24.21C46.13 23.94 46.47 23.18 47.06 22.23Z" fill="black"/>
</svg>
